<svg xmlns="http://www.w3.org/2000/svg" version="1.1" xmlns:xlink="http://www.w3.org/1999/xlink" xmlns:svgjs="http://svgjs.dev/svgjs" viewBox="0 0 600 600"><path d="M152.4077139721012 374.61606609033925C116.55547881381668 339.4180705865958 64.08560856438635 257.37665823308015 71.5439215526676 223.0945969741283C79.00223454094885 188.8125357151765 151.75348703321774 180.5691325983145 197.1575919017887 168.9236985366283C242.56169677035967 157.27826447494212 296.6017320181624 140.66062684066478 343.9685507640934 153.22199260401112C391.33536951002435 165.78335836735747 464.4791657950179 202.6823655288158 481.35850437737463 244.29189311670643C498.23784295973144 285.90142070459706 477.694777570734 371.2140453180411 445.244582258234 402.87915813135487C412.794386945734 434.54427094466865 335.4634772167301 438.9930853367585 286.65733250237463 434.28256999658925C237.85118778801916 429.57205465642 188.2599491303857 409.8140615940827 152.4077139721012 374.61606609033925C116.55547881381668 339.4180705865958 64.08560856438635 257.37665823308015 71.5439215526676 223.0945969741283 " fill="#06b6d4" fill-opacity="0.47"></path><defs><pattern id="ssshape-pattern5" width="20" height="20" patternUnits="userSpaceOnUse">
  <rect width="100%" height="100%" fill="#10b981"></rect>
  <rect width="5" height="5" fill="hsl(160, 75%, 51%)"></rect>
</pattern><pattern id="ssshape-pattern3" width="90" height="90" viewBox="0 0 40 40" patternUnits="userSpaceOnUse" patternTransform="scale(2.4) rotate(53)">
  <rect width="100%" height="100%" fill="#10b981"></rect>
  <path d="M11 20L20 0L20 40zM31 20L40 0L40 40zM0-20L9 0L0 20zM0 20L9 40L0 60zM20-20L29 0L20 20zM20 20L29 40L20 60z" fill="hsl(160, 75%, 51%)"></path>
</pattern></defs><path d="M115.50874958958627 337.7171317638851C79.65651443130176 302.51913626014164 27.18664418187143 220.477723906626 34.64495717015268 186.19566264767417C42.10327015843393 151.91360138872236 114.85452265070282 143.67019827186036 160.25862751927377 132.02476421017417C205.66273238784476 120.37933014848798 259.7027676356475 103.76169251421064 307.06958638157846 116.32305827755698C354.43640512750943 128.88442404090333 427.58020141250296 165.78343120236167 444.4595399948597 207.3929587902523C461.3388785772165 249.00248637814292 440.7958131882191 334.31511099158695 408.3456178757191 365.98022380490073C375.8954225632191 397.6453366182145 298.5645128342152 402.09415101030436 249.7583681198597 397.3836356701351C200.95222340550424 392.67312032996585 151.3609847478708 372.9151272676286 115.50874958958627 337.7171317638851C79.65651443130176 302.51913626014164 27.18664418187143 220.477723906626 34.64495717015268 186.19566264767417 " fill-opacity="0.47" fill="url(&quot;#ssshape-pattern3&quot;)" opacity="1" stroke-opacity="1" stroke-width="0" stroke="hsl(340, 45%, 30%)" transform="matrix(1,0,0,1,75,75)"></path></svg>